<?xml version="1.0" encoding="UTF-8"?>
<svg width="115px" height="45px" viewBox="0 0 115 45" version="1.1" xmlns="http://www.w3.org/2000/svg" xmlns:xlink="http://www.w3.org/1999/xlink">
    <!-- Generator: Sketch 49.1 (51147) - http://www.bohemiancoding.com/sketch -->
    <title>-g-icon-volume/normal</title>
    <desc>Created with Sketch.</desc>
    <defs>
        <filter x="-483.7%" y="-209.4%" width="1067.3%" height="518.7%" filterUnits="objectBoundingBox" id="filter-1">
            <feGaussianBlur stdDeviation="11 0" in="SourceGraphic"></feGaussianBlur>
        </filter>
        <filter x="-337.8%" y="-112.4%" width="775.7%" height="324.8%" filterUnits="objectBoundingBox" id="filter-2">
            <feGaussianBlur stdDeviation="11 0" in="SourceGraphic"></feGaussianBlur>
        </filter>
        <filter x="-248.3%" y="-76.1%" width="596.7%" height="252.2%" filterUnits="objectBoundingBox" id="filter-3">
            <feGaussianBlur stdDeviation="11 0" in="SourceGraphic"></feGaussianBlur>
        </filter>
        <filter x="-143.5%" y="-88.9%" width="387.0%" height="277.8%" filterUnits="objectBoundingBox" id="filter-4">
            <feGaussianBlur stdDeviation="11 0" in="SourceGraphic"></feGaussianBlur>
        </filter>
        <filter x="-44.0%" y="-19.0%" width="187.9%" height="138.1%" filterUnits="objectBoundingBox" id="filter-5">
            <feGaussianBlur stdDeviation="1 0" in="SourceGraphic"></feGaussianBlur>
        </filter>
        <filter x="-30.7%" y="-10.2%" width="161.4%" height="120.4%" filterUnits="objectBoundingBox" id="filter-6">
            <feGaussianBlur stdDeviation="1 0" in="SourceGraphic"></feGaussianBlur>
        </filter>
        <filter x="-22.6%" y="-6.9%" width="145.2%" height="113.8%" filterUnits="objectBoundingBox" id="filter-7">
            <feGaussianBlur stdDeviation="1 0" in="SourceGraphic"></feGaussianBlur>
        </filter>
        <filter x="-13.0%" y="-8.1%" width="126.1%" height="116.2%" filterUnits="objectBoundingBox" id="filter-8">
            <feGaussianBlur stdDeviation="1 0" in="SourceGraphic"></feGaussianBlur>
        </filter>
        <path d="M4.38606008,15.7618888 L0.99899787,12.5826713 C2.34156098,11.4150948 3.19029816,9.69437376 3.19029816,7.77541959 C3.19029816,5.96668943 2.43626303,4.33407361 1.22539174,3.17477108 L4.60518231,0.00237897148 C6.59277552,1.99258048 7.8218771,4.740464 7.8218771,7.77541959 C7.8218771,10.9203942 6.50204897,13.7571064 4.38606008,15.7618888 Z" id="path-9"></path>
        <radialGradient cx="50%" cy="54.0688058%" fx="50%" fy="54.0688058%" r="35.4492055%" id="radialGradient-11">
            <stop stop-color="#FFFFFF" offset="0%"></stop>
            <stop stop-color="#FFFFFF" stop-opacity="0" offset="100%"></stop>
        </radialGradient>
        <path d="M3.66480142,29.439558 L0.017089284,26.0156851 C2.96040856,23.114088 4.78493529,19.0806156 4.78493529,14.6210022 C4.78493529,10.3027504 3.0742437,6.38405211 0.293588046,3.50563474 L3.9394996,0.083451963 C7.55992659,3.85656316 9.78493529,8.97894337 9.78493529,14.6210022 C9.78493529,20.4043993 7.44705365,25.6417549 3.66480142,29.439558 Z" id="path-12"></path>
        <path d="M5.31479408,43.4426264 L1.60139297,40.0939392 C5.87765587,35.4602827 8.49004734,29.2679494 8.49004734,22.4654595 C8.49004734,14.9492043 5.30067322,8.1778674 0.201445692,3.43096944 L3.92655027,0.0717282388 C9.82008228,5.71487365 13.4900473,13.6615834 13.4900473,22.4654595 C13.4900473,30.5558758 10.3908028,37.9224249 5.31479408,43.4426264 Z" id="path-14"></path>
        <path d="M13.2849674,13.7077115 L8.06,13.7077115 C6.37000867,13.7077115 5,15.0777202 5,16.7677115 L5,20.3472928 C5,22.0372841 6.37000867,23.4072928 8.06,23.4072928 L13.410316,23.4072928 L17.2267512,27.1436822 C17.3220654,27.2369972 17.4501452,27.2892562 17.5835337,27.2892562 C17.8651989,27.2892562 18.0935337,27.0609215 18.0935337,26.7792562 L18.0935337,10.2130285 C18.0935337,10.07964 18.0412747,9.95156023 17.9479596,9.85624606 C17.7509141,9.65497917 17.4280181,9.65155707 17.2267512,9.84860259 L13.2849674,13.7077115 Z M11.9131598,9.64434237 L21.2587511,0.298751083 C21.6570859,-0.0995836944 22.3029141,-0.0995836944 22.7012489,0.298751083 C22.892536,0.490038189 23,0.74947918 23,1.02 L23,36.0950043 C23,36.6583348 22.5433304,37.1150043 21.98,37.1150043 C21.7094792,37.1150043 21.4500382,37.0075404 21.2587511,36.8162532 L11.9131598,27.470662 C11.5773019,27.5277639 11.2321238,27.5575022 10.88,27.5575022 L6.12,27.5575022 C2.74001733,27.5575022 -4.74249924e-16,24.8174848 -8.8817842e-16,21.4375022 L0,15.6775022 C-4.13928496e-16,12.2975195 2.74001733,9.55750217 6.12,9.55750217 L10.88,9.55750217 C11.2321238,9.55750217 11.5773019,9.5872404 11.9131598,9.64434237 Z" id="path-16"></path>
        <linearGradient x1="594.144631%" y1="-18.0063469%" x2="-409.010509%" y2="100%" id="linearGradient-18">
            <stop stop-color="#FFFFFF" offset="0%"></stop>
            <stop stop-color="#C2C2C2" offset="65.0888871%"></stop>
            <stop stop-color="#DBDBDB" stop-opacity="0.74535779" offset="80.8035714%"></stop>
            <stop stop-color="#FFFFFF" stop-opacity="0" offset="100%"></stop>
        </linearGradient>
    </defs>
    <g id="player--zeplin" stroke="none" stroke-width="1" fill="none" fill-rule="evenodd" opacity="0.8">
        <g id="icons--different-status" transform="translate(-323.000000, -85.000000)">
            <g id="icon/volume/normal" transform="translate(354.000000, 86.000000)">
                <g id="icon-volume--normal" transform="translate(-29.000000, -26.000000)">
                    <g id="volume--motion-blur-black" transform="translate(29.000000, 26.000000)" fill="#000000" opacity="0.05">
                        <path d="M30.3860601,29.7618888 L26.9989979,26.5826713 C28.341561,25.4150948 29.1902982,23.6943738 29.1902982,21.7754196 C29.1902982,19.9666894 28.436263,18.3340736 27.2253917,17.1747711 L30.6051823,14.002379 C32.5927755,15.9925805 33.8218771,18.740464 33.8218771,21.7754196 C33.8218771,24.9203942 32.502049,27.7571064 30.3860601,29.7618888 Z" id="4" style="mix-blend-mode: overlay;" filter="url(#filter-1)"></path>
                        <path d="M37.6648014,36.439558 L34.0170893,33.0156851 C36.9604086,30.114088 38.7849353,26.0806156 38.7849353,21.6210022 C38.7849353,17.3027504 37.0742437,13.3840521 34.293588,10.5056347 L37.9394996,7.08345196 C41.5599266,10.8565632 43.7849353,15.9789434 43.7849353,21.6210022 C43.7849353,27.4043993 41.4470536,32.6417549 37.6648014,36.439558 Z" id="3" style="mix-blend-mode: overlay;" filter="url(#filter-2)"></path>
                        <path d="M46.3147941,43.4426264 L42.601393,40.0939392 C46.8776559,35.4602827 49.4900473,29.2679494 49.4900473,22.4654595 C49.4900473,14.9492043 46.3006732,8.1778674 41.2014457,3.43096944 L44.9265503,0.0717282388 C50.8200823,5.71487365 54.4900473,13.6615834 54.4900473,22.4654595 C54.4900473,30.5558758 51.3908028,37.9224249 46.3147941,43.4426264 Z" id="2" style="mix-blend-mode: overlay;" filter="url(#filter-3)"></path>
                        <path d="M13.2849674,17.7077115 L8.06,17.7077115 C6.37000867,17.7077115 5,19.0777202 5,20.7677115 L5,24.3472928 C5,26.0372841 6.37000867,27.4072928 8.06,27.4072928 L13.410316,27.4072928 L17.2267512,31.1436822 C17.3220654,31.2369972 17.4501452,31.2892562 17.5835337,31.2892562 C17.8651989,31.2892562 18.0935337,31.0609215 18.0935337,30.7792562 L18.0935337,14.2130285 C18.0935337,14.07964 18.0412747,13.9515602 17.9479596,13.8562461 C17.7509141,13.6549792 17.4280181,13.6515571 17.2267512,13.8486026 L13.2849674,17.7077115 Z M11.9131598,13.6443424 L21.2587511,4.29875108 C21.6570859,3.90041631 22.3029141,3.90041631 22.7012489,4.29875108 C22.892536,4.49003819 23,4.74947918 23,5.02 L23,40.0950043 C23,40.6583348 22.5433304,41.1150043 21.98,41.1150043 C21.7094792,41.1150043 21.4500382,41.0075404 21.2587511,40.8162532 L11.9131598,31.470662 C11.5773019,31.5277639 11.2321238,31.5575022 10.88,31.5575022 L6.12,31.5575022 C2.74001733,31.5575022 -4.74249924e-16,28.8174848 -8.8817842e-16,25.4375022 L0,19.6775022 C-4.13928496e-16,16.2975195 2.74001733,13.5575022 6.12,13.5575022 L10.88,13.5575022 C11.2321238,13.5575022 11.5773019,13.5872404 11.9131598,13.6443424 Z" id="1" style="mix-blend-mode: overlay;" filter="url(#filter-4)"></path>
                    </g>
                    <g id="volume--motion-blur" transform="translate(29.000000, 26.000000)" fill="#FFFFFF">
                        <path d="M30.3860601,29.7618888 L26.9989979,26.5826713 C28.341561,25.4150948 29.1902982,23.6943738 29.1902982,21.7754196 C29.1902982,19.9666894 28.436263,18.3340736 27.2253917,17.1747711 L30.6051823,14.002379 C32.5927755,15.9925805 33.8218771,18.740464 33.8218771,21.7754196 C33.8218771,24.9203942 32.502049,27.7571064 30.3860601,29.7618888 Z" id="4" style="mix-blend-mode: overlay;" filter="url(#filter-5)"></path>
                        <path d="M37.6648014,36.439558 L34.0170893,33.0156851 C36.9604086,30.114088 38.7849353,26.0806156 38.7849353,21.6210022 C38.7849353,17.3027504 37.0742437,13.3840521 34.293588,10.5056347 L37.9394996,7.08345196 C41.5599266,10.8565632 43.7849353,15.9789434 43.7849353,21.6210022 C43.7849353,27.4043993 41.4470536,32.6417549 37.6648014,36.439558 Z" id="3" style="mix-blend-mode: overlay;" filter="url(#filter-6)"></path>
                        <path d="M46.3147941,43.4426264 L42.601393,40.0939392 C46.8776559,35.4602827 49.4900473,29.2679494 49.4900473,22.4654595 C49.4900473,14.9492043 46.3006732,8.1778674 41.2014457,3.43096944 L44.9265503,0.0717282388 C50.8200823,5.71487365 54.4900473,13.6615834 54.4900473,22.4654595 C54.4900473,30.5558758 51.3908028,37.9224249 46.3147941,43.4426264 Z" id="2" style="mix-blend-mode: overlay;" filter="url(#filter-7)"></path>
                        <path d="M13.2849674,17.7077115 L8.06,17.7077115 C6.37000867,17.7077115 5,19.0777202 5,20.7677115 L5,24.3472928 C5,26.0372841 6.37000867,27.4072928 8.06,27.4072928 L13.410316,27.4072928 L17.2267512,31.1436822 C17.3220654,31.2369972 17.4501452,31.2892562 17.5835337,31.2892562 C17.8651989,31.2892562 18.0935337,31.0609215 18.0935337,30.7792562 L18.0935337,14.2130285 C18.0935337,14.07964 18.0412747,13.9515602 17.9479596,13.8562461 C17.7509141,13.6549792 17.4280181,13.6515571 17.2267512,13.8486026 L13.2849674,17.7077115 Z M11.9131598,13.6443424 L21.2587511,4.29875108 C21.6570859,3.90041631 22.3029141,3.90041631 22.7012489,4.29875108 C22.892536,4.49003819 23,4.74947918 23,5.02 L23,40.0950043 C23,40.6583348 22.5433304,41.1150043 21.98,41.1150043 C21.7094792,41.1150043 21.4500382,41.0075404 21.2587511,40.8162532 L11.9131598,31.470662 C11.5773019,31.5277639 11.2321238,31.5575022 10.88,31.5575022 L6.12,31.5575022 C2.74001733,31.5575022 -4.74249924e-16,28.8174848 -8.8817842e-16,25.4375022 L0,19.6775022 C-4.13928496e-16,16.2975195 2.74001733,13.5575022 6.12,13.5575022 L10.88,13.5575022 C11.2321238,13.5575022 11.5773019,13.5872404 11.9131598,13.6443424 Z" id="1" style="mix-blend-mode: overlay;" filter="url(#filter-8)"></path>
                    </g>
                    <g id="volume--bg-blur" transform="translate(29.000000, 26.000000)" fill="#FFFFFF" fill-opacity="0.63" opacity="0.75">
                        <path d="M30.3860601,29.7618888 L26.9989979,26.5826713 C28.341561,25.4150948 29.1902982,23.6943738 29.1902982,21.7754196 C29.1902982,19.9666894 28.436263,18.3340736 27.2253917,17.1747711 L30.6051823,14.002379 C32.5927755,15.9925805 33.8218771,18.740464 33.8218771,21.7754196 C33.8218771,24.9203942 32.502049,27.7571064 30.3860601,29.7618888 Z" id="4"></path>
                        <path d="M37.6648014,36.439558 L34.0170893,33.0156851 C36.9604086,30.114088 38.7849353,26.0806156 38.7849353,21.6210022 C38.7849353,17.3027504 37.0742437,13.3840521 34.293588,10.5056347 L37.9394996,7.08345196 C41.5599266,10.8565632 43.7849353,15.9789434 43.7849353,21.6210022 C43.7849353,27.4043993 41.4470536,32.6417549 37.6648014,36.439558 Z" id="3"></path>
                        <path d="M46.3147941,43.4426264 L42.601393,40.0939392 C46.8776559,35.4602827 49.4900473,29.2679494 49.4900473,22.4654595 C49.4900473,14.9492043 46.3006732,8.1778674 41.2014457,3.43096944 L44.9265503,0.0717282388 C50.8200823,5.71487365 54.4900473,13.6615834 54.4900473,22.4654595 C54.4900473,30.5558758 51.3908028,37.9224249 46.3147941,43.4426264 Z" id="2"></path>
                        <path d="M13.2849674,17.7077115 L8.06,17.7077115 C6.37000867,17.7077115 5,19.0777202 5,20.7677115 L5,24.3472928 C5,26.0372841 6.37000867,27.4072928 8.06,27.4072928 L13.410316,27.4072928 L17.2267512,31.1436822 C17.3220654,31.2369972 17.4501452,31.2892562 17.5835337,31.2892562 C17.8651989,31.2892562 18.0935337,31.0609215 18.0935337,30.7792562 L18.0935337,14.2130285 C18.0935337,14.07964 18.0412747,13.9515602 17.9479596,13.8562461 C17.7509141,13.6549792 17.4280181,13.6515571 17.2267512,13.8486026 L13.2849674,17.7077115 Z M11.9131598,13.6443424 L21.2587511,4.29875108 C21.6570859,3.90041631 22.3029141,3.90041631 22.7012489,4.29875108 C22.892536,4.49003819 23,4.74947918 23,5.02 L23,40.0950043 C23,40.6583348 22.5433304,41.1150043 21.98,41.1150043 C21.7094792,41.1150043 21.4500382,41.0075404 21.2587511,40.8162532 L11.9131598,31.470662 C11.5773019,31.5277639 11.2321238,31.5575022 10.88,31.5575022 L6.12,31.5575022 C2.74001733,31.5575022 -4.74249924e-16,28.8174848 -8.8817842e-16,25.4375022 L0,19.6775022 C-4.13928496e-16,16.2975195 2.74001733,13.5575022 6.12,13.5575022 L10.88,13.5575022 C11.2321238,13.5575022 11.5773019,13.5872404 11.9131598,13.6443424 Z" id="1"></path>
                    </g>
                    <g id="volume--highlight">
                        <g id="4" transform="translate(55.000000, 40.000000)">
                            <mask id="mask-10" fill="white">
                                <use xlink:href="#path-9"></use>
                            </mask>
                            <g id="shape"></g>
                            <circle id="light" fill="url(#radialGradient-11)" opacity="0.8" mask="url(#mask-10)" cx="8" cy="-1" r="51"></circle>
                        </g>
                        <g id="3" transform="translate(63.000000, 33.000000)">
                            <mask id="mask-13" fill="white">
                                <use xlink:href="#path-12"></use>
                            </mask>
                            <g id="shape"></g>
                            <circle id="light" fill="url(#radialGradient-11)" opacity="0.8" mask="url(#mask-13)" cx="0" cy="6" r="51"></circle>
                        </g>
                        <g id="2" transform="translate(70.000000, 26.000000)">
                            <mask id="mask-15" fill="white">
                                <use xlink:href="#path-14"></use>
                            </mask>
                            <g id="shape"></g>
                            <circle id="light" fill="url(#radialGradient-11)" opacity="0.8" mask="url(#mask-15)" cx="-7" cy="13" r="51"></circle>
                        </g>
                        <g id="1" transform="translate(29.000000, 30.000000)">
                            <mask id="mask-17" fill="white">
                                <use xlink:href="#path-16"></use>
                            </mask>
                            <g id="shape"></g>
                            <circle id="light" fill="url(#radialGradient-11)" opacity="0.8" mask="url(#mask-17)" cx="34" cy="9" r="51"></circle>
                        </g>
                    </g>
                    <g id="volume--border" transform="translate(29.000000, 26.000000)" opacity="0.28" stroke="url(#linearGradient-18)" stroke-width="0.5">
                        <path d="M30.3860601,29.7618888 L26.9989979,26.5826713 C28.341561,25.4150948 29.1902982,23.6943738 29.1902982,21.7754196 C29.1902982,19.9666894 28.436263,18.3340736 27.2253917,17.1747711 L30.6051823,14.002379 C32.5927755,15.9925805 33.8218771,18.740464 33.8218771,21.7754196 C33.8218771,24.9203942 32.502049,27.7571064 30.3860601,29.7618888 Z" id="4"></path>
                        <path d="M37.6648014,36.439558 L34.0170893,33.0156851 C36.9604086,30.114088 38.7849353,26.0806156 38.7849353,21.6210022 C38.7849353,17.3027504 37.0742437,13.3840521 34.293588,10.5056347 L37.9394996,7.08345196 C41.5599266,10.8565632 43.7849353,15.9789434 43.7849353,21.6210022 C43.7849353,27.4043993 41.4470536,32.6417549 37.6648014,36.439558 Z" id="3"></path>
                        <path d="M46.3147941,43.4426264 L42.601393,40.0939392 C46.8776559,35.4602827 49.4900473,29.2679494 49.4900473,22.4654595 C49.4900473,14.9492043 46.3006732,8.1778674 41.2014457,3.43096944 L44.9265503,0.0717282388 C50.8200823,5.71487365 54.4900473,13.6615834 54.4900473,22.4654595 C54.4900473,30.5558758 51.3908028,37.9224249 46.3147941,43.4426264 Z" id="2"></path>
                        <path d="M13.2849674,17.7077115 L8.06,17.7077115 C6.37000867,17.7077115 5,19.0777202 5,20.7677115 L5,24.3472928 C5,26.0372841 6.37000867,27.4072928 8.06,27.4072928 L13.410316,27.4072928 L17.2267512,31.1436822 C17.3220654,31.2369972 17.4501452,31.2892562 17.5835337,31.2892562 C17.8651989,31.2892562 18.0935337,31.0609215 18.0935337,30.7792562 L18.0935337,14.2130285 C18.0935337,14.07964 18.0412747,13.9515602 17.9479596,13.8562461 C17.7509141,13.6549792 17.4280181,13.6515571 17.2267512,13.8486026 L13.2849674,17.7077115 Z M11.9131598,13.6443424 L21.2587511,4.29875108 C21.6570859,3.90041631 22.3029141,3.90041631 22.7012489,4.29875108 C22.892536,4.49003819 23,4.74947918 23,5.02 L23,40.0950043 C23,40.6583348 22.5433304,41.1150043 21.98,41.1150043 C21.7094792,41.1150043 21.4500382,41.0075404 21.2587511,40.8162532 L11.9131598,31.470662 C11.5773019,31.5277639 11.2321238,31.5575022 10.88,31.5575022 L6.12,31.5575022 C2.74001733,31.5575022 -4.74249924e-16,28.8174848 -8.8817842e-16,25.4375022 L0,19.6775022 C-4.13928496e-16,16.2975195 2.74001733,13.5575022 6.12,13.5575022 L10.88,13.5575022 C11.2321238,13.5575022 11.5773019,13.5872404 11.9131598,13.6443424 Z" id="1"></path>
                    </g>
                </g>
            </g>
        </g>
    </g>
</svg>